<mxfile host="Electron" agent="Mozilla/5.0 (Windows NT 10.0; Win64; x64) AppleWebKit/537.36 (KHTML, like Gecko) draw.io/26.0.4 Chrome/128.0.6613.186 Electron/32.2.5 Safari/537.36" version="26.0.4">
  <diagram name="Page-1" id="eNzHr8OC46UluhLbdwcR">
    <mxGraphModel dx="1969" dy="984" grid="1" gridSize="10" guides="1" tooltips="1" connect="1" arrows="1" fold="1" page="1" pageScale="1" pageWidth="827" pageHeight="1169" math="0" shadow="0">
      <root>
        <mxCell id="0" />
        <mxCell id="1" parent="0" />
        <mxCell id="EaksvaSEffg4lAUmDHWk-88" value="" style="rounded=0;whiteSpace=wrap;html=1;fillColor=none;strokeColor=#b85450;fontStyle=1;fontSize=15;" vertex="1" parent="1">
          <mxGeometry x="50" y="840" width="1550" height="290" as="geometry" />
        </mxCell>
        <mxCell id="EaksvaSEffg4lAUmDHWk-24" value="" style="rounded=0;whiteSpace=wrap;html=1;fillColor=none;strokeColor=#b85450;" vertex="1" parent="1">
          <mxGeometry x="50" y="310" width="1280" height="220" as="geometry" />
        </mxCell>
        <mxCell id="EaksvaSEffg4lAUmDHWk-44" value="" style="rounded=0;whiteSpace=wrap;html=1;fillColor=none;strokeColor=#b85450;" vertex="1" parent="1">
          <mxGeometry x="50" y="585" width="1280" height="220" as="geometry" />
        </mxCell>
        <mxCell id="EaksvaSEffg4lAUmDHWk-8" value="" style="edgeStyle=orthogonalEdgeStyle;rounded=0;orthogonalLoop=1;jettySize=auto;html=1;" edge="1" parent="1" source="EaksvaSEffg4lAUmDHWk-2" target="EaksvaSEffg4lAUmDHWk-7">
          <mxGeometry relative="1" as="geometry" />
        </mxCell>
        <mxCell id="EaksvaSEffg4lAUmDHWk-2" value="Utilisateur" style="shape=umlActor;verticalLabelPosition=bottom;verticalAlign=top;html=1;outlineConnect=0;" vertex="1" parent="1">
          <mxGeometry x="140" y="390" width="30" height="60" as="geometry" />
        </mxCell>
        <mxCell id="EaksvaSEffg4lAUmDHWk-22" value="" style="edgeStyle=orthogonalEdgeStyle;rounded=0;orthogonalLoop=1;jettySize=auto;html=1;" edge="1" parent="1" source="EaksvaSEffg4lAUmDHWk-7" target="EaksvaSEffg4lAUmDHWk-21">
          <mxGeometry relative="1" as="geometry" />
        </mxCell>
        <mxCell id="EaksvaSEffg4lAUmDHWk-7" value="Branche le boitier" style="whiteSpace=wrap;html=1;aspect=fixed;" vertex="1" parent="1">
          <mxGeometry x="230" y="380" width="80" height="80" as="geometry" />
        </mxCell>
        <mxCell id="EaksvaSEffg4lAUmDHWk-12" value="" style="edgeStyle=orthogonalEdgeStyle;rounded=0;orthogonalLoop=1;jettySize=auto;html=1;" edge="1" parent="1" source="EaksvaSEffg4lAUmDHWk-9" target="EaksvaSEffg4lAUmDHWk-11">
          <mxGeometry relative="1" as="geometry" />
        </mxCell>
        <mxCell id="EaksvaSEffg4lAUmDHWk-9" value="Installe l&#39;appli" style="whiteSpace=wrap;html=1;aspect=fixed;" vertex="1" parent="1">
          <mxGeometry x="490" y="380" width="80" height="80" as="geometry" />
        </mxCell>
        <mxCell id="EaksvaSEffg4lAUmDHWk-14" value="" style="edgeStyle=orthogonalEdgeStyle;rounded=0;orthogonalLoop=1;jettySize=auto;html=1;" edge="1" parent="1" source="EaksvaSEffg4lAUmDHWk-11" target="EaksvaSEffg4lAUmDHWk-13">
          <mxGeometry relative="1" as="geometry" />
        </mxCell>
        <mxCell id="EaksvaSEffg4lAUmDHWk-11" value="Crée un compte&lt;br&gt;(user, mdp, addresse...)" style="whiteSpace=wrap;html=1;aspect=fixed;" vertex="1" parent="1">
          <mxGeometry x="626" y="380" width="80" height="80" as="geometry" />
        </mxCell>
        <mxCell id="EaksvaSEffg4lAUmDHWk-16" value="" style="edgeStyle=orthogonalEdgeStyle;rounded=0;orthogonalLoop=1;jettySize=auto;html=1;" edge="1" parent="1" source="EaksvaSEffg4lAUmDHWk-13" target="EaksvaSEffg4lAUmDHWk-15">
          <mxGeometry relative="1" as="geometry" />
        </mxCell>
        <mxCell id="EaksvaSEffg4lAUmDHWk-13" value="ajoute le raspberry depuis l&#39;appli (detection a proximité)" style="whiteSpace=wrap;html=1;aspect=fixed;" vertex="1" parent="1">
          <mxGeometry x="766" y="380" width="80" height="80" as="geometry" />
        </mxCell>
        <mxCell id="EaksvaSEffg4lAUmDHWk-18" value="" style="edgeStyle=orthogonalEdgeStyle;rounded=0;orthogonalLoop=1;jettySize=auto;html=1;" edge="1" parent="1" source="EaksvaSEffg4lAUmDHWk-15" target="EaksvaSEffg4lAUmDHWk-17">
          <mxGeometry relative="1" as="geometry" />
        </mxCell>
        <mxCell id="EaksvaSEffg4lAUmDHWk-15" value="Rentre SSID et mdp du wifi" style="whiteSpace=wrap;html=1;aspect=fixed;" vertex="1" parent="1">
          <mxGeometry x="906" y="380" width="80" height="80" as="geometry" />
        </mxCell>
        <mxCell id="EaksvaSEffg4lAUmDHWk-20" value="" style="edgeStyle=orthogonalEdgeStyle;rounded=0;orthogonalLoop=1;jettySize=auto;html=1;" edge="1" parent="1" source="EaksvaSEffg4lAUmDHWk-17" target="EaksvaSEffg4lAUmDHWk-19">
          <mxGeometry relative="1" as="geometry" />
        </mxCell>
        <mxCell id="EaksvaSEffg4lAUmDHWk-17" value="Valide" style="whiteSpace=wrap;html=1;aspect=fixed;" vertex="1" parent="1">
          <mxGeometry x="1046" y="380" width="80" height="80" as="geometry" />
        </mxCell>
        <mxCell id="EaksvaSEffg4lAUmDHWk-19" value="Bouton de controle directement disponible dans l&#39;app" style="whiteSpace=wrap;html=1;aspect=fixed;" vertex="1" parent="1">
          <mxGeometry x="1186" y="380" width="80" height="80" as="geometry" />
        </mxCell>
        <mxCell id="EaksvaSEffg4lAUmDHWk-23" value="" style="edgeStyle=orthogonalEdgeStyle;rounded=0;orthogonalLoop=1;jettySize=auto;html=1;" edge="1" parent="1" source="EaksvaSEffg4lAUmDHWk-21" target="EaksvaSEffg4lAUmDHWk-9">
          <mxGeometry relative="1" as="geometry" />
        </mxCell>
        <mxCell id="EaksvaSEffg4lAUmDHWk-21" value="Cable la télécomande" style="whiteSpace=wrap;html=1;aspect=fixed;" vertex="1" parent="1">
          <mxGeometry x="360" y="380" width="80" height="80" as="geometry" />
        </mxCell>
        <mxCell id="EaksvaSEffg4lAUmDHWk-25" value="Option de base : 400€" style="text;html=1;align=center;verticalAlign=middle;whiteSpace=wrap;rounded=0;fontSize=15;fontStyle=1" vertex="1" parent="1">
          <mxGeometry x="50" y="320" width="210" height="30" as="geometry" />
        </mxCell>
        <mxCell id="EaksvaSEffg4lAUmDHWk-27" value="" style="edgeStyle=orthogonalEdgeStyle;rounded=0;orthogonalLoop=1;jettySize=auto;html=1;" edge="1" parent="1" source="EaksvaSEffg4lAUmDHWk-28" target="EaksvaSEffg4lAUmDHWk-30">
          <mxGeometry relative="1" as="geometry" />
        </mxCell>
        <mxCell id="EaksvaSEffg4lAUmDHWk-28" value="Utilisateur" style="shape=umlActor;verticalLabelPosition=bottom;verticalAlign=top;html=1;outlineConnect=0;" vertex="1" parent="1">
          <mxGeometry x="140" y="665" width="30" height="60" as="geometry" />
        </mxCell>
        <mxCell id="EaksvaSEffg4lAUmDHWk-29" value="" style="edgeStyle=orthogonalEdgeStyle;rounded=0;orthogonalLoop=1;jettySize=auto;html=1;" edge="1" parent="1" source="EaksvaSEffg4lAUmDHWk-30" target="EaksvaSEffg4lAUmDHWk-43">
          <mxGeometry relative="1" as="geometry" />
        </mxCell>
        <mxCell id="EaksvaSEffg4lAUmDHWk-30" value="Branche le boitier" style="whiteSpace=wrap;html=1;aspect=fixed;" vertex="1" parent="1">
          <mxGeometry x="230" y="655" width="80" height="80" as="geometry" />
        </mxCell>
        <mxCell id="EaksvaSEffg4lAUmDHWk-31" value="" style="edgeStyle=orthogonalEdgeStyle;rounded=0;orthogonalLoop=1;jettySize=auto;html=1;" edge="1" parent="1" source="EaksvaSEffg4lAUmDHWk-32" target="EaksvaSEffg4lAUmDHWk-34">
          <mxGeometry relative="1" as="geometry" />
        </mxCell>
        <mxCell id="EaksvaSEffg4lAUmDHWk-32" value="Installe l&#39;appli" style="whiteSpace=wrap;html=1;aspect=fixed;" vertex="1" parent="1">
          <mxGeometry x="490" y="655" width="80" height="80" as="geometry" />
        </mxCell>
        <mxCell id="EaksvaSEffg4lAUmDHWk-33" value="" style="edgeStyle=orthogonalEdgeStyle;rounded=0;orthogonalLoop=1;jettySize=auto;html=1;" edge="1" parent="1" source="EaksvaSEffg4lAUmDHWk-34" target="EaksvaSEffg4lAUmDHWk-36">
          <mxGeometry relative="1" as="geometry" />
        </mxCell>
        <mxCell id="EaksvaSEffg4lAUmDHWk-34" value="Crée un compte&lt;br&gt;(user, mdp, addresse...)" style="whiteSpace=wrap;html=1;aspect=fixed;" vertex="1" parent="1">
          <mxGeometry x="626" y="655" width="80" height="80" as="geometry" />
        </mxCell>
        <mxCell id="EaksvaSEffg4lAUmDHWk-35" value="" style="edgeStyle=orthogonalEdgeStyle;rounded=0;orthogonalLoop=1;jettySize=auto;html=1;" edge="1" parent="1" source="EaksvaSEffg4lAUmDHWk-36" target="EaksvaSEffg4lAUmDHWk-38">
          <mxGeometry relative="1" as="geometry" />
        </mxCell>
        <mxCell id="EaksvaSEffg4lAUmDHWk-36" value="ajoute le raspberry depuis l&#39;appli (detection a proximité)" style="whiteSpace=wrap;html=1;aspect=fixed;" vertex="1" parent="1">
          <mxGeometry x="766" y="655" width="80" height="80" as="geometry" />
        </mxCell>
        <mxCell id="EaksvaSEffg4lAUmDHWk-37" value="" style="edgeStyle=orthogonalEdgeStyle;rounded=0;orthogonalLoop=1;jettySize=auto;html=1;" edge="1" parent="1" source="EaksvaSEffg4lAUmDHWk-38" target="EaksvaSEffg4lAUmDHWk-40">
          <mxGeometry relative="1" as="geometry" />
        </mxCell>
        <mxCell id="EaksvaSEffg4lAUmDHWk-38" value="Rentre SSID et mdp du wifi" style="whiteSpace=wrap;html=1;aspect=fixed;" vertex="1" parent="1">
          <mxGeometry x="906" y="655" width="80" height="80" as="geometry" />
        </mxCell>
        <mxCell id="EaksvaSEffg4lAUmDHWk-39" value="" style="edgeStyle=orthogonalEdgeStyle;rounded=0;orthogonalLoop=1;jettySize=auto;html=1;" edge="1" parent="1" source="EaksvaSEffg4lAUmDHWk-40" target="EaksvaSEffg4lAUmDHWk-41">
          <mxGeometry relative="1" as="geometry" />
        </mxCell>
        <mxCell id="EaksvaSEffg4lAUmDHWk-40" value="Valide" style="whiteSpace=wrap;html=1;aspect=fixed;" vertex="1" parent="1">
          <mxGeometry x="1046" y="655" width="80" height="80" as="geometry" />
        </mxCell>
        <mxCell id="EaksvaSEffg4lAUmDHWk-41" value="Bouton de controle directement disponible dans l&#39;app" style="whiteSpace=wrap;html=1;aspect=fixed;" vertex="1" parent="1">
          <mxGeometry x="1186" y="655" width="80" height="80" as="geometry" />
        </mxCell>
        <mxCell id="EaksvaSEffg4lAUmDHWk-42" value="" style="edgeStyle=orthogonalEdgeStyle;rounded=0;orthogonalLoop=1;jettySize=auto;html=1;" edge="1" parent="1" source="EaksvaSEffg4lAUmDHWk-43" target="EaksvaSEffg4lAUmDHWk-32">
          <mxGeometry relative="1" as="geometry" />
        </mxCell>
        <mxCell id="EaksvaSEffg4lAUmDHWk-43" value="Cablage d&#39;un emeteur et recepteur (portail et raspberry" style="whiteSpace=wrap;html=1;aspect=fixed;" vertex="1" parent="1">
          <mxGeometry x="360" y="655" width="80" height="80" as="geometry" />
        </mxCell>
        <mxCell id="EaksvaSEffg4lAUmDHWk-45" value="Option sans cablage sur telecomande : 450€" style="text;html=1;align=center;verticalAlign=middle;whiteSpace=wrap;rounded=0;fontSize=15;fontStyle=1" vertex="1" parent="1">
          <mxGeometry x="50" y="595" width="190" height="30" as="geometry" />
        </mxCell>
        <mxCell id="EaksvaSEffg4lAUmDHWk-46" value="" style="edgeStyle=orthogonalEdgeStyle;rounded=0;orthogonalLoop=1;jettySize=auto;html=1;" edge="1" parent="1" source="EaksvaSEffg4lAUmDHWk-47">
          <mxGeometry relative="1" as="geometry">
            <mxPoint x="230" y="960" as="targetPoint" />
          </mxGeometry>
        </mxCell>
        <mxCell id="EaksvaSEffg4lAUmDHWk-47" value="Utilisateur" style="shape=umlActor;verticalLabelPosition=bottom;verticalAlign=top;html=1;outlineConnect=0;" vertex="1" parent="1">
          <mxGeometry x="140" y="930" width="30" height="60" as="geometry" />
        </mxCell>
        <mxCell id="EaksvaSEffg4lAUmDHWk-64" value="Option avec GSM + 14,99€" style="text;html=1;align=center;verticalAlign=middle;whiteSpace=wrap;rounded=0;fontSize=15;fontStyle=1" vertex="1" parent="1">
          <mxGeometry x="50" y="860" width="180" height="30" as="geometry" />
        </mxCell>
        <mxCell id="EaksvaSEffg4lAUmDHWk-70" value="" style="edgeStyle=orthogonalEdgeStyle;rounded=0;orthogonalLoop=1;jettySize=auto;html=1;" edge="1" parent="1" source="EaksvaSEffg4lAUmDHWk-65" target="EaksvaSEffg4lAUmDHWk-69">
          <mxGeometry relative="1" as="geometry" />
        </mxCell>
        <mxCell id="EaksvaSEffg4lAUmDHWk-65" value="Branche le boitier" style="whiteSpace=wrap;html=1;aspect=fixed;" vertex="1" parent="1">
          <mxGeometry x="370" y="920" width="80" height="80" as="geometry" />
        </mxCell>
        <mxCell id="EaksvaSEffg4lAUmDHWk-67" value="" style="edgeStyle=orthogonalEdgeStyle;rounded=0;orthogonalLoop=1;jettySize=auto;html=1;" edge="1" parent="1" source="EaksvaSEffg4lAUmDHWk-66" target="EaksvaSEffg4lAUmDHWk-65">
          <mxGeometry relative="1" as="geometry" />
        </mxCell>
        <mxCell id="EaksvaSEffg4lAUmDHWk-66" value="Achat du package avec l&#39;option GSM" style="whiteSpace=wrap;html=1;aspect=fixed;" vertex="1" parent="1">
          <mxGeometry x="230" y="920" width="80" height="80" as="geometry" />
        </mxCell>
        <mxCell id="EaksvaSEffg4lAUmDHWk-72" value="" style="edgeStyle=orthogonalEdgeStyle;rounded=0;orthogonalLoop=1;jettySize=auto;html=1;" edge="1" parent="1" source="EaksvaSEffg4lAUmDHWk-69" target="EaksvaSEffg4lAUmDHWk-71">
          <mxGeometry relative="1" as="geometry" />
        </mxCell>
        <mxCell id="EaksvaSEffg4lAUmDHWk-69" value="Cable la télécomande" style="whiteSpace=wrap;html=1;aspect=fixed;" vertex="1" parent="1">
          <mxGeometry x="510" y="920" width="80" height="80" as="geometry" />
        </mxCell>
        <mxCell id="EaksvaSEffg4lAUmDHWk-75" value="" style="edgeStyle=orthogonalEdgeStyle;rounded=0;orthogonalLoop=1;jettySize=auto;html=1;" edge="1" parent="1" source="EaksvaSEffg4lAUmDHWk-71" target="EaksvaSEffg4lAUmDHWk-74">
          <mxGeometry relative="1" as="geometry" />
        </mxCell>
        <mxCell id="EaksvaSEffg4lAUmDHWk-71" value="Installe l&#39;appli" style="whiteSpace=wrap;html=1;aspect=fixed;" vertex="1" parent="1">
          <mxGeometry x="650" y="920" width="80" height="80" as="geometry" />
        </mxCell>
        <mxCell id="EaksvaSEffg4lAUmDHWk-77" value="" style="edgeStyle=orthogonalEdgeStyle;rounded=0;orthogonalLoop=1;jettySize=auto;html=1;" edge="1" parent="1" source="EaksvaSEffg4lAUmDHWk-74" target="EaksvaSEffg4lAUmDHWk-76">
          <mxGeometry relative="1" as="geometry" />
        </mxCell>
        <mxCell id="EaksvaSEffg4lAUmDHWk-74" value="Crée un compte&lt;br&gt;(user, mdp, addresse...)" style="whiteSpace=wrap;html=1;aspect=fixed;" vertex="1" parent="1">
          <mxGeometry x="790" y="920" width="80" height="80" as="geometry" />
        </mxCell>
        <mxCell id="EaksvaSEffg4lAUmDHWk-79" value="" style="edgeStyle=orthogonalEdgeStyle;rounded=0;orthogonalLoop=1;jettySize=auto;html=1;" edge="1" parent="1" source="EaksvaSEffg4lAUmDHWk-76" target="EaksvaSEffg4lAUmDHWk-78">
          <mxGeometry relative="1" as="geometry" />
        </mxCell>
        <mxCell id="EaksvaSEffg4lAUmDHWk-76" value="ajoute le raspberry depuis l&#39;appli (detection a proximité)" style="whiteSpace=wrap;html=1;aspect=fixed;" vertex="1" parent="1">
          <mxGeometry x="930" y="920" width="80" height="80" as="geometry" />
        </mxCell>
        <mxCell id="EaksvaSEffg4lAUmDHWk-81" value="" style="edgeStyle=orthogonalEdgeStyle;rounded=0;orthogonalLoop=1;jettySize=auto;html=1;" edge="1" parent="1" source="EaksvaSEffg4lAUmDHWk-78" target="EaksvaSEffg4lAUmDHWk-80">
          <mxGeometry relative="1" as="geometry" />
        </mxCell>
        <mxCell id="EaksvaSEffg4lAUmDHWk-78" value="Rentre SSID et mdp du wifi" style="whiteSpace=wrap;html=1;aspect=fixed;" vertex="1" parent="1">
          <mxGeometry x="1070" y="920" width="80" height="80" as="geometry" />
        </mxCell>
        <mxCell id="EaksvaSEffg4lAUmDHWk-84" value="" style="edgeStyle=orthogonalEdgeStyle;rounded=0;orthogonalLoop=1;jettySize=auto;html=1;" edge="1" parent="1" source="EaksvaSEffg4lAUmDHWk-80" target="EaksvaSEffg4lAUmDHWk-82">
          <mxGeometry relative="1" as="geometry" />
        </mxCell>
        <mxCell id="EaksvaSEffg4lAUmDHWk-80" value="Activation et payment de l&#39;abonement MENSUEL GSM" style="whiteSpace=wrap;html=1;aspect=fixed;" vertex="1" parent="1">
          <mxGeometry x="1210" y="920" width="80" height="80" as="geometry" />
        </mxCell>
        <mxCell id="EaksvaSEffg4lAUmDHWk-85" value="" style="edgeStyle=orthogonalEdgeStyle;rounded=0;orthogonalLoop=1;jettySize=auto;html=1;" edge="1" parent="1" source="EaksvaSEffg4lAUmDHWk-82" target="EaksvaSEffg4lAUmDHWk-83">
          <mxGeometry relative="1" as="geometry" />
        </mxCell>
        <mxCell id="EaksvaSEffg4lAUmDHWk-87" style="edgeStyle=orthogonalEdgeStyle;rounded=0;orthogonalLoop=1;jettySize=auto;html=1;exitX=1;exitY=0.5;exitDx=0;exitDy=0;entryX=0;entryY=0.5;entryDx=0;entryDy=0;" edge="1" parent="1" source="EaksvaSEffg4lAUmDHWk-82" target="EaksvaSEffg4lAUmDHWk-86">
          <mxGeometry relative="1" as="geometry" />
        </mxCell>
        <mxCell id="EaksvaSEffg4lAUmDHWk-82" value="Valide" style="whiteSpace=wrap;html=1;aspect=fixed;" vertex="1" parent="1">
          <mxGeometry x="1350" y="920" width="80" height="80" as="geometry" />
        </mxCell>
        <mxCell id="EaksvaSEffg4lAUmDHWk-83" value="Bouton de controle directement disponible dans l&#39;app" style="whiteSpace=wrap;html=1;aspect=fixed;" vertex="1" parent="1">
          <mxGeometry x="1490" y="920" width="80" height="80" as="geometry" />
        </mxCell>
        <mxCell id="EaksvaSEffg4lAUmDHWk-86" value="Appel avec le numero fourni (ou SMS)" style="whiteSpace=wrap;html=1;aspect=fixed;" vertex="1" parent="1">
          <mxGeometry x="1490" y="1030" width="80" height="80" as="geometry" />
        </mxCell>
      </root>
    </mxGraphModel>
  </diagram>
</mxfile>
